<svg width="115" height="26" viewBox="0 0 115 26" fill="none" xmlns="http://www.w3.org/2000/svg">
<path d="M54.2496 9.68087V7.13476H30.3727V9.68087H33.0211V11.7252H30.3727C30.3727 11.7252 30.3727 14.2713 33.0211 14.2713V16.3209H30.3727V18.8635H40.9852V20.9042H30.3727V23.4504H40.9852V25.9965H43.6336V23.4504H54.2496V20.9042H43.6336V18.8635H54.2496V16.3209H51.5943V14.2713C54.2496 14.2713 54.2496 11.7252 54.2496 11.7252H51.5943V9.68087H54.2496ZM40.9852 16.3227H35.6764V14.2731H38.3333V11.7269H35.6764V9.68264H40.9852V16.3244V16.3227ZM48.9442 11.7269H46.2923V14.2731H48.9442V16.3227H43.6319V9.68087H48.9442V11.7269Z" fill="white"/>
<path d="M40.9818 5.09045V0H38.3248V2.54434H30.3727C30.3727 2.54434 30.3846 5.09045 33.0023 5.09045H40.9818Z" fill="white"/>
<path d="M43.6251 0V5.09045H51.6011C54.2257 5.09045 54.2359 2.54434 54.2359 2.54434H46.2752V0H43.6234H43.6251Z" fill="white"/>
<path d="M84.6205 11.7269H60.7453V14.2731H84.6205V11.7269Z" fill="white"/>
<path d="M23.8803 9.61549L23.8752 4.15753C22.0078 4.15753 21.4621 5.50391 21.2984 6.30608H13.2712V0H10.6159V6.30432H2.58364C2.42163 5.50391 1.87761 4.15576 0.00852686 4.15576L0 9.61373L0.00341074 9.61019V19.6975H10.6159V25.9982H13.2712V19.6975H23.8803V9.61373V9.61549ZM10.6159 17.1513H2.65526V8.84689H10.6159V17.1513ZM21.2302 17.1513H13.2712V8.84689H21.2302V17.1513Z" fill="white"/>
<path d="M114.998 11.7234H112.341V9.68087H114.99V7.13476H104.377V9.68087H109.686V11.7234L104.377 11.7269V26H107.034V14.266H109.686C109.686 14.266 110.09 22.0033 112.328 25.9753L114.986 25.9965C112.474 20.5385 112.343 14.266 112.343 14.266H115V11.7252L114.998 11.7234Z" fill="white"/>
<path d="M91.1146 0V5.09045H93.7647V2.54434H96.4132V5.08692H101.722V2.54081H99.0701V0H91.1146Z" fill="white"/>
<path d="M107.026 0H104.374V5.09045H107.026V0Z" fill="white"/>
<path d="M93.0553 25.9876C93.9864 26.0247 95.4343 25.265 96.1403 24.9187C96.6945 24.6483 98.0913 23.8832 98.6472 23.5793C99.0377 24.3691 99.4641 25.1943 99.8631 25.9576C100.457 25.7897 101.456 25.3869 102.361 25.037C100.868 23.0245 99.0787 20.2275 99.0787 20.2275H97.0373C97.0373 20.2275 97.1976 20.5685 97.4551 21.1145C97.0817 21.3248 95.5008 22.1941 94.4537 22.5881C94.07 22.7365 93.7852 22.4362 93.7852 22.0262V18.8582H99.0582C101.731 18.8582 101.727 16.3068 101.727 16.3068L101.731 7.13299H91.118V23.5617C91.118 24.9946 91.7643 25.9399 93.0587 25.9859L93.0553 25.9876ZM93.7647 9.68087H99.0684V11.7269H93.7647V9.68087ZM93.7647 14.2731H99.0684V16.3138H93.7647V14.2731Z" fill="white"/>
<path d="M109.705 0V5.09045H112.353C114.973 5.09045 114.985 2.54434 114.985 2.54434H112.341V0H109.705Z" fill="white"/>
</svg>
